<svg fill="none" height="80" viewBox="0 0 80 80" width="80" xmlns="http://www.w3.org/2000/svg" xmlns:xlink="http://www.w3.org/1999/xlink"><radialGradient id="a" cx="34.479" cy="27.1245" gradientUnits="userSpaceOnUse" r="36.7641"><stop offset="0" stop-color="#ffdf30"/><stop offset="1" stop-color="#ffb82e"/></radialGradient><radialGradient id="b" cx="34.479" cy="27.1245" gradientUnits="userSpaceOnUse" r="28.924"><stop offset="0" stop-color="#ffe95f"/><stop offset="1" stop-color="#ffbb47" stop-opacity="0"/></radialGradient><linearGradient id="c"><stop offset="0" stop-color="#ff4c00"/><stop offset=".1542" stop-color="#ff4c00"/><stop offset=".1795" stop-color="#ff4c00"/><stop offset=".3996" stop-color="#fa4c0b" stop-opacity=".7318"/><stop offset=".7799" stop-color="#ee4b27" stop-opacity=".2683"/><stop offset="1" stop-color="#e64a3a" stop-opacity="0"/></linearGradient><radialGradient id="d" cx="0" cy="0" gradientTransform="matrix(12.80351934 -.61954399 .49021717 10.13084648 23.872 47.0563)" gradientUnits="userSpaceOnUse" r="1" xlink:href="#c"/><radialGradient id="e" cx="0" cy="0" gradientTransform="matrix(-12.80352258 -.61947695 .49016413 -10.13084905 57.06 47.0564)" gradientUnits="userSpaceOnUse" r="1" xlink:href="#c"/><linearGradient id="f"><stop offset=".00132565" stop-color="#3c2200"/><stop offset="1" stop-color="#7a4400"/></linearGradient><linearGradient id="g" gradientUnits="userSpaceOnUse" x1="56.7423" x2="57.469" xlink:href="#f" y1="27.7114" y2="24.5835"/><linearGradient id="h"><stop offset=".00132565" stop-color="#7a4400"/><stop offset="1" stop-color="#643800"/></linearGradient><radialGradient id="i" cx="0" cy="0" gradientTransform="matrix(5.27314121 1.48022724 -.71408986 2.54386392 53.1064 34.0067)" gradientUnits="userSpaceOnUse" r="1" xlink:href="#h"/><linearGradient id="j"><stop offset=".00132565" stop-color="#3c2200"/><stop offset="1" stop-color="#512d00"/></linearGradient><linearGradient id="k" gradientUnits="userSpaceOnUse" x1="54.3121" x2="53.3751" xlink:href="#j" y1="29.6902" y2="33.1025"/><linearGradient id="l" gradientUnits="userSpaceOnUse" x1="24.2068" x2="23.4801" xlink:href="#f" y1="27.6954" y2="24.5674"/><radialGradient id="m" cx="0" cy="0" gradientTransform="matrix(-5.27315083 1.48022994 -.71408986 -2.54386392 27.8214 34.0202)" gradientUnits="userSpaceOnUse" r="1" xlink:href="#h"/><linearGradient id="n" gradientUnits="userSpaceOnUse" x1="26.6188" x2="27.5559" xlink:href="#j" y1="29.6731" y2="33.0854"/><linearGradient id="o" gradientUnits="userSpaceOnUse" x1="40.475" x2="40.475" xlink:href="#j" y1="50.5431" y2="55.0926"/><linearGradient id="p"><stop offset="0" stop-color="#7a4400" stop-opacity=".5"/><stop offset=".6008" stop-color="#894d00" stop-opacity=".1981"/><stop offset=".995" stop-color="#965500" stop-opacity="0"/></linearGradient><radialGradient id="q" cx="0" cy="0" gradientTransform="matrix(-12.80352258 -.61947695 .49016413 -10.13084905 19.7849 61.0563)" gradientUnits="userSpaceOnUse" r="1" xlink:href="#p"/><radialGradient id="r" cx="0" cy="0" gradientTransform="matrix(12.80351934 -.61954399 .49021717 10.13084648 61.1568 61.0563)" gradientUnits="userSpaceOnUse" r="1" xlink:href="#p"/><linearGradient id="s"><stop offset=".00132565" stop-color="#ffcb4b"/><stop offset="1" stop-color="#ffd748"/></linearGradient><linearGradient id="t" gradientUnits="userSpaceOnUse" x1="29.184" x2="25.5664" xlink:href="#s" y1="70.5729" y2="64.421"/><linearGradient id="u" gradientUnits="userSpaceOnUse" x1="29.1767" x2="22.703" xlink:href="#s" y1="65.9945" y2="60.0242"/><linearGradient id="v" gradientUnits="userSpaceOnUse" x1="13.1611" x2="16.6966" xlink:href="#s" y1="63.7642" y2="65.7259"/><linearGradient id="w" gradientUnits="userSpaceOnUse" x1="10.6459" x2="17.5165" xlink:href="#s" y1="57.0122" y2="62.5685"/><linearGradient id="x"><stop offset="0" stop-color="#ffbc47" stop-opacity="0"/><stop offset="1" stop-color="#ffa754"/></linearGradient><linearGradient id="y" gradientUnits="userSpaceOnUse" x1="16.6476" x2="13.579" xlink:href="#x" y1="59.1631" y2="62.9031"/><linearGradient id="z" gradientUnits="userSpaceOnUse" x1="17.0741" x2="21.3158" xlink:href="#s" y1="52.8577" y2="57.9462"/><linearGradient id="A" gradientUnits="userSpaceOnUse" x1="13.4219" x2="18.9779" xlink:href="#s" y1="54.4956" y2="60.2785"/><linearGradient id="B" gradientUnits="userSpaceOnUse" x1="19.7824" x2="16.2866" xlink:href="#x" y1="53.8116" y2="57.8927"/><linearGradient id="C" gradientUnits="userSpaceOnUse" x1="16.8642" x2="12.4531" xlink:href="#x" y1="56.6286" y2="60.8163"/><linearGradient id="D" gradientUnits="userSpaceOnUse" x1="20.3468" x2="16.6136" xlink:href="#x" y1="60.5166" y2="64.0605"/><linearGradient id="E"><stop offset="0" stop-color="#ffbc47" stop-opacity="0"/><stop offset="1" stop-color="#ffbc47"/></linearGradient><linearGradient id="F" gradientUnits="userSpaceOnUse" x1="13.2259" x2="18.2411" xlink:href="#E" y1="62.2751" y2="65.3805"/><linearGradient id="G" gradientUnits="userSpaceOnUse" x1="12.993" x2="17.4834" xlink:href="#E" y1="57.2521" y2="62.4779"/><linearGradient id="H" gradientUnits="userSpaceOnUse" x1="15.952" x2="17.1981" xlink:href="#x" y1="57.2797" y2="56.0445"/><linearGradient id="I" gradientUnits="userSpaceOnUse" x1="22.2289" x2="19.9123" xlink:href="#E" y1="59.4049" y2="52.7508"/><linearGradient id="J"><stop offset=".3118" stop-color="#ffbc47" stop-opacity="0"/><stop offset="1" stop-color="#ff8900"/></linearGradient><linearGradient id="K" gradientUnits="userSpaceOnUse" x1="19.599" x2="17.6192" xlink:href="#J" y1="66.76" y2="69.1135"/><linearGradient id="L"><stop offset=".6134" stop-color="#ffbc47" stop-opacity="0"/><stop offset="1" stop-color="#ff8900"/></linearGradient><radialGradient id="M" cx="0" cy="0" gradientTransform="matrix(10.93762635 9.44257168 -8.57154987 9.92869453 20.1317 59.7375)" gradientUnits="userSpaceOnUse" r="1" xlink:href="#L"/><linearGradient id="N" gradientUnits="userSpaceOnUse" x1="51.758" x2="55.3755" xlink:href="#s" y1="70.5704" y2="64.4184"/><linearGradient id="O" gradientUnits="userSpaceOnUse" x1="51.7651" x2="58.2388" xlink:href="#s" y1="65.992" y2="60.0217"/><linearGradient id="P" gradientUnits="userSpaceOnUse" x1="67.7808" x2="64.2452" xlink:href="#s" y1="63.7616" y2="65.7234"/><linearGradient id="Q" gradientUnits="userSpaceOnUse" x1="70.296" x2="63.4254" xlink:href="#s" y1="57.0096" y2="62.5659"/><linearGradient id="R" gradientUnits="userSpaceOnUse" x1="64.2942" x2="67.3628" xlink:href="#x" y1="59.1605" y2="62.9006"/><linearGradient id="S" gradientUnits="userSpaceOnUse" x1="63.8677" x2="59.6261" xlink:href="#s" y1="52.8552" y2="57.9437"/><linearGradient id="T" gradientUnits="userSpaceOnUse" x1="67.5201" x2="61.9641" xlink:href="#s" y1="54.493" y2="60.2759"/><linearGradient id="U" gradientUnits="userSpaceOnUse" x1="61.1595" x2="64.6553" xlink:href="#x" y1="53.809" y2="57.8902"/><linearGradient id="V" gradientUnits="userSpaceOnUse" x1="64.0777" x2="68.4889" xlink:href="#x" y1="56.626" y2="60.8137"/><linearGradient id="W" gradientUnits="userSpaceOnUse" x1="60.5953" x2="64.3284" xlink:href="#x" y1="60.5141" y2="64.058"/><linearGradient id="X" gradientUnits="userSpaceOnUse" x1="67.7159" x2="62.7007" xlink:href="#E" y1="62.2726" y2="65.3779"/><linearGradient id="Y" gradientUnits="userSpaceOnUse" x1="67.949" x2="63.4586" xlink:href="#E" y1="57.2496" y2="62.4754"/><linearGradient id="Z" gradientUnits="userSpaceOnUse" x1="64.99" x2="63.7438" xlink:href="#x" y1="57.2772" y2="56.0419"/><linearGradient id="aa" gradientUnits="userSpaceOnUse" x1="58.713" x2="61.0296" xlink:href="#E" y1="59.4023" y2="52.7483"/><linearGradient id="ab" gradientUnits="userSpaceOnUse" x1="61.3429" x2="63.3227" xlink:href="#J" y1="66.7575" y2="69.111"/><radialGradient id="ac" cx="0" cy="0" gradientTransform="matrix(-10.93769227 9.44249532 -8.57148056 -9.92875437 60.7878 59.7122)" gradientUnits="userSpaceOnUse" r="1" xlink:href="#L"/><path d="m40.475 69.95c16.8309 0 30.475-13.6441 30.475-30.475s-13.6441-30.475-30.475-30.475-30.475 13.6441-30.475 30.475 13.6441 30.475 30.475 30.475z" fill="url(#a)"/><path d="m40.475 69.95c16.8309 0 30.475-13.6441 30.475-30.475s-13.6441-30.475-30.475-30.475-30.475 13.6441-30.475 30.475 13.6441 30.475 30.475 30.475z" fill="url(#b)" opacity=".5"/><path d="m40.475 69.95c16.8309 0 30.475-13.6441 30.475-30.475s-13.6441-30.475-30.475-30.475-30.475 13.6441-30.475 30.475 13.6441 30.475 30.475 30.475z" fill="url(#d)" opacity=".5"/><path d="m40.475 69.95c16.8309 0 30.475-13.6441 30.475-30.475s-13.6441-30.475-30.475-30.475-30.475 13.6441-30.475 30.475 13.6441 30.475 30.475 30.475z" fill="url(#e)" opacity=".5"/><path d="m50.9499 24.2658c.2835-1.1906 1.7293-1.63 3.9547-1.1197 1.8852.4394 5.769 2.4238 7.7676 6.747.3685.7938-.5245.978-.9355.4252-1.4033-1.8852-5.6415-4.8902-9.3977-5.3437-1.5167-.1843-1.3891-.7088-1.3891-.7088z" fill="url(#g)"/><path d="m53.8698 31.2255s4.9044 1.3607 5.6414 5.3863c.0426.2551.0567.5103 0 .7654-.085.5103-.652.9639-1.4457.3118-4.9611-3.9688-8.3771-3.09-10.9002-2.5088-.9922.2267-1.63-.8505-1.219-1.6159.1276-.2268.2126-.4678.3827-.6521 2.6365-3.0758 7.5408-1.6867 7.5408-1.6867z" fill="url(#i)"/><path d="m53.5581 32.402s3.9972 1.1056 5.9816 4.6633c0-.1559 0-.2976-.0284-.4535-.737-4.0256-5.6414-5.3863-5.6414-5.3863s-4.9043-1.3891-7.5408 1.6867c-.0992.1134-.1843.241-.2551.3686 3.4869-2.0128 7.4841-.8788 7.4841-.8788z" fill="url(#k)"/><path d="m30.0001 24.2658c-.2834-1.1906-1.7292-1.63-3.9546-1.1197-1.8852.4394-5.769 2.4238-7.7676 6.747-.3685.7938.5244.978.9355.4252 1.4033-1.8852 5.6414-4.8902 9.3976-5.3437 1.5167-.1843 1.3891-.7088 1.3891-.7088z" fill="url(#l)"/><path d="m27.0802 31.2255s-4.9044 1.3607-5.6414 5.3863c-.0426.2551-.0567.5103 0 .7654.085.5103.652.9639 1.4458.3118 4.961-3.9688 8.377-3.09 10.9001-2.5088.9922.2267 1.63-.8505 1.219-1.6159-.1276-.2268-.2126-.4678-.3827-.6521-2.6365-3.0758-7.5408-1.6867-7.5408-1.6867z" fill="url(#m)"/><path d="m27.392 32.402s-3.9972 1.1056-5.9816 4.6633c0-.1559 0-.2976.0283-.4535.7371-4.0256 5.6415-5.3863 5.6415-5.3863s4.9043-1.3891 7.5408 1.6867c.0992.1134.1842.241.2551.3686-3.4869-2.0128-7.4841-.8788-7.4841-.8788z" fill="url(#n)"/><path d="m53.9407 48.3907c-.2551-.0425-.5102.0284-.6945.2126-3.2743 3.0759-8.3204 4.7201-12.1191 4.7201h-.6521-.652c-3.7987 0-8.859-1.6442-12.1191-4.7201-.1843-.1701-.4394-.2551-.6946-.2126-.2551.0425-.3968.3402-.2693.5812 2.7924 4.8335 7.966 7.8384 13.5791 7.8384h.1701.1701c5.6131 0 10.7867-2.9908 13.5791-7.8384.1134-.241-.0283-.5245-.2977-.5812z" fill="#643800"/><path d="m53.9407 48.3907c-.2551-.0425-.5102.0284-.6945.2126-3.2743 3.0759-8.3204 4.7201-12.1191 4.7201h-.6521-.652c-3.7987 0-8.859-1.6442-12.1191-4.7201-.1843-.1701-.4394-.2551-.6946-.2126-.2551.0425-.3968.3402-.2693.5812.0284.0425.0567.0992.0851.1417.2693-.1559.5386-.2977.8363.0284 3.1042 3.4869 7.7108 5.5705 12.6435 5.5705h.1701.1701c4.9611 0 9.5961-2.112 12.7003-5.6414.2835-.326.5528-.1701.808 0 .0141-.0284.0425-.0709.0567-.0992.1417-.241 0-.5245-.2694-.5812z" fill="url(#o)"/><path d="m40.475 69.95c16.8309 0 30.475-13.6441 30.475-30.475s-13.6441-30.475-30.475-30.475-30.475 13.6441-30.475 30.475 13.6441 30.475 30.475 30.475z" fill="url(#q)"/><path d="m40.475 69.95c16.8309 0 30.475-13.6441 30.475-30.475s-13.6441-30.475-30.475-30.475-30.475 13.6441-30.475 30.475 13.6441 30.475 30.475 30.475z" fill="url(#r)"/><path d="m20.1773 58.2845c.3402.2976.6662.6945.567.8221-.0992.1275-.482-.0284-.7796-.2693-.3119-.241-.5812 2.7214-.6237 2.8774-.0283.1134-.6662 1.0772-.9639 1.9419-.0992.2835.0284 1.1056-.0141 1.1623-.1701.2268-.1985.5102-.8363.1559-.6379-.3544-.7087 2.1403 0 2.5089 1.2048.6236 3.7987 3.4018 6.7187 3.0333 3.3735-.4394 6.0383-4.3516 5.7123-6.9313-.3261-2.5798-1.2191-3.4586-1.4458-5.6273-.1985-1.8426 1.0205-2.8774.9071-3.7987-.0992-.7654-1.2615-.8079-1.6442-.7654-.6662.085-2.2679 1.1623-1.9703 3.4018.1134.8789-.0283 1.701-.9355 1.8144-.9071.1134-2.0553-.9781-2.7782-1.8569" fill="url(#t)"/><path d="m29.4189 54.1597c-.0567-.4252-.4252-.6237-.8079-.7087.6378 1.4174-1.6017 1.7718-.9639 6.7753.6379 5.0036-2.0836 6.8321-3.2601 7.2432-1.1765.411-3.2885.7512-5.1737-1.0206-.5811-.5528-1.0914-.8363-1.956-1.2899-.1985.5954-.2835 2.0695.2693 2.353 1.2048.6237 3.7987 3.4019 6.7187 3.0333 3.3735-.4394 6.0383-4.3515 5.7123-6.9313-.3261-2.5797-1.2191-3.4585-1.4458-5.6272-.1985-1.871 1.0205-2.9058.9071-3.8271z" fill="url(#u)"/><path d="m17.5266 64.989c-.6378-.3544-2.1828-1.4317-3.1467-1.8994-.9639-.4819-1.6726-.3119-2.0128.5103-.3402.8363 1.3749 1.7859 1.7718 2.0553.6095.3968 2.679 1.4883 3.3877 1.8568" fill="url(#v)"/><path d="m19.3409 61.7147c-.0425.1559-.5528 0-1.6159-.6804-.8079-.5245-3.005-2.0553-4.224-2.6931-1.2331-.6379-2.0978-.808-2.6222-.1701-.5245.6378.0992 1.5166 1.0347 2.1403 1.1623.7796 2.4663 1.5308 3.6995 2.2537.9781.567 2.9199 2.027 2.7499 2.2396" fill="url(#w)"/><path d="m15.613 62.5793c.9213.5386 2.6931 1.8569 2.764 2.197.1843-.3968-.3827-1.4457-.893-1.7718-2.9341-1.8852-6.506-4.4933-6.8037-4.309 0 .5386.5245 1.1623 1.219 1.6301 1.1623.7654 2.4663 1.5308 3.7137 2.2537z" fill="url(#y)"/><path d="m22.0907 56.7536c-.7229-.8788-3.2884-3.7562-3.8979-4.6492-.5954-.893-1.4175-.893-1.9845-.4961-.5669.3969-.737 1.1907.5245 2.8916 1.0206 1.3891 1.9986 2.2396 3.4586 3.7846l1.8426-.3686z" fill="url(#z)"/><path d="m19.9646 58.8514c-.3118-.2409-3.1467-2.7923-3.7987-3.3026-1.219-.9355-2.9625-3.1042-4.2665-1.7435-.6946.7229-.0992 1.46.1843 1.7435.2834.2835 3.8979 3.1184 4.2381 3.3451.3402.2268 3.0617 2.6648 3.0192 2.8066" fill="url(#A)"/><path d="m20.1772 58.2845c.2835.326.652.6662.5811.8079.8647-.9072-1.6442-2.7357-2.7923-4.1248-.893-1.0772-1.0773-2.6648-1.7151-3.4018-.0142.0142-.0284.0142-.0426.0283-.5669.3969-.737 1.1907.5245 2.8916 1.0064 1.4033 2.0128 2.1829 3.4444 3.7988z" fill="url(#B)"/><path d="m16.3218 58.9081c.3402.2268 3.0617 2.6648 3.0191 2.8066.6379-1.134-2.6931-3.7988-4.4082-5.032-1.4883-1.0772-1.9135-2.1828-3.2459-2.5939-.3402.6237.1417 1.219.3968 1.4742.2977.2835 3.898 3.1183 4.2382 3.3451z" fill="url(#C)"/><path d="m19.2984 61.7855c-.085.0709-.2551.0993-.5528-.0283.2126.1417.4252.1843.5528.0283z" fill="url(#D)"/><path d="m18.1645 65.0456c.0992-.0567.1559-.1134.1559-.1701-.1701.1701-.2126.4395-.7938.1134-.6378-.3543-2.1828-1.4316-3.1467-1.8993-.4252-.2126-.7938-.2977-1.1198-.2552.5103.1843.326.326 1.4742.8647.6236.2835 2.7782 1.7009 3.4302 1.3465z" fill="url(#F)"/><path d="m15.8966 60.2689c.9355.6803 2.764 2.0411 3.3593 1.545-.1701.085-.7087-.241-1.5308-.7654-.808-.5245-3.005-2.0553-4.224-2.6932-.9922-.5103-1.7577-.7229-2.2821-.4394 1.786.1134 3.7987 1.7009 4.6776 2.353z" fill="url(#G)"/><path d="m16.4353 56.2717c1.4032 1.0347 3.4585 3.416 4.2806 2.8632-.1417.0567-.4677-.085-.7512-.2977-.3118-.2409-3.1467-2.7923-3.7988-3.3026-.8504-.652-1.9419-1.8852-2.9624-2.1403 1.0914.5953 2.0978 2.0411 3.2318 2.8774z" fill="url(#H)"/><path d="m23.7351 58.2703c-.5954-.3686-1.2049-.9922-1.6443-1.5167-.7229-.8788-3.2884-3.7562-3.8979-4.6492-.1843-.2693-.3827-.4536-.5954-.5811.2835.411.4394.9922 1.0773 1.7151 1.0205 1.1623 2.4947 3.0333 3.0475 3.6853.5386.652 1.46 2.0553 2.0128 1.3466z" fill="url(#I)"/><path d="m28.37 68.0081c-.4961-.8788-1.1197-1.3608-1.8568-.7371-1.9986 1.7151-4.5642 1.5592-8.0511-.5811-3.1042-1.9136-4.6634-2.6932-6.1375-2.9908-.1701.8079 1.4174 1.7009 1.8001 1.9419.6095.3969 2.679 1.4883 3.3877 1.8568 1.2049.6237 3.7988 3.4019 6.7187 3.0333 1.6442-.2126 3.1042-1.2332 4.1389-2.523z" fill="url(#K)"/><path d="m28.5118 57.9584c-.1985-1.8426 1.0205-2.8774.9071-3.7987-.0283-.2693-.1984-.4536-.411-.567.3402.6804-.1701 1.3891-.893 2.5798-.7796 1.2898-.7654 3.1183.1134 4.8476s.3827 4.3232-.8221 5.2871c-1.2048.9638-2.5089 4.6634-7.9944 1.3749-.3402-.241-.6804-.4536-1.0064-.6095-2.2821-1.0347-3.3877-1.5025-4.4933-2.2821-.2126-.1559-.8504-.7796-1.3607-.4252.4252.5811 1.3182 1.0914 1.6017 1.2757.6095.3969 2.679 1.4883 3.3877 1.8568.085.0426.1984.1134.2976.1843.0284.0142.0567.0425.0851.0567.0142 0 .0142.0142.0283.0142.0142.0141.0426.0283.0567.0425 0 0 .0142 0 .0142.0142.7371.5102 1.7576 1.3749 2.9625 2.0127.0992.0567.2126.1134.326.156.1134.0566.2126.0992.326.1417.8221.3402 1.7009.5386 2.6223.4111 3.3735-.4395 6.0383-4.3516 5.7122-6.9313-.3543-2.594-1.2331-3.4728-1.4599-5.6415z" fill="url(#M)"/><path d="m60.7727 58.2845c-.3402.2976-.6662.6945-.567.8221.0992.1275.482-.0284.7796-.2693.3119-.241.5812 2.7214.6237 2.8774.0283.1134.6662 1.0772.9639 1.9419.0992.2835-.0284 1.1056.0141 1.1623.1701.2268.1985.5102.8363.1559.6379-.3544.7087 2.1403 0 2.5089-1.2048.6236-3.7987 3.4018-6.7187 3.0333-3.3735-.4394-6.0382-4.3516-5.7122-6.9313.326-2.5798 1.219-3.4586 1.4458-5.6273.1984-1.8426-1.0206-2.8774-.9072-3.7987.0992-.7654 1.2615-.8079 1.6442-.7654.6662.085 2.2679 1.1623 1.9703 3.4018-.1134.8789.0283 1.701.9355 1.8144.9071.1134 2.0553-.9781 2.7782-1.8569" fill="url(#N)"/><path d="m51.531 54.1597c.0567-.4252.4252-.6237.8079-.7087-.6378 1.4174 1.6017 1.7718.9639 6.7753-.6379 5.0036 2.0836 6.8321 3.2601 7.2432 1.1765.411 3.2885.7512 5.1737-1.0206.5811-.5528 1.0914-.8363 1.956-1.2899.1985.5954.2835 2.0695-.2693 2.353-1.2048.6237-3.7987 3.4019-6.7186 3.0333-3.3736-.4394-6.0383-4.3515-5.7123-6.9313.326-2.5797 1.219-3.4585 1.4458-5.6272.1984-1.871-1.0206-2.9058-.9072-3.8271z" fill="url(#O)"/><path d="m63.4233 64.989c.6379-.3544 2.1829-1.4317 3.1468-1.8994.9638-.4819 1.6725-.3119 2.0127.5103.3402.8363-1.3749 1.7859-1.7718 2.0553-.6095.3968-2.6789 1.4883-3.3877 1.8568" fill="url(#P)"/><path d="m61.6091 61.7147c.0426.1559.5528 0 1.6159-.6804.808-.5245 3.005-2.0553 4.224-2.6931 1.2332-.6379 2.0978-.808 2.6223-.1701.5244.6378-.0993 1.5166-1.0348 2.1403-1.1623.7796-2.4663 1.5308-3.6995 2.2537-.978.567-2.9199 2.027-2.7498 2.2396" fill="url(#Q)"/><path d="m65.3369 62.5793c-.9213.5386-2.6931 1.8569-2.764 2.197-.1843-.3968.3827-1.4457.893-1.7718 2.9341-1.8852 6.506-4.4933 6.8037-4.309 0 .5386-.5244 1.1623-1.219 1.6301-1.1623.7654-2.4663 1.5308-3.7137 2.2537z" fill="url(#R)"/><path d="m58.8593 56.7536c.7228-.8788 3.2884-3.7562 3.8979-4.6492.5953-.893 1.4175-.893 1.9844-.4961.567.3969.7371 1.1907-.5244 2.8916-1.0206 1.3891-1.9986 2.2396-3.4586 3.7846l-1.8427-.3686z" fill="url(#S)"/><path d="m60.9855 58.8514c.3118-.2409 3.1467-2.7923 3.7987-3.3026 1.219-.9355 2.9625-3.1042 4.2665-1.7435.6946.7229.0993 1.46-.1842 1.7435s-3.898 3.1184-4.2382 3.3451c-.3402.2268-3.0617 2.6648-3.0192 2.8066" fill="url(#T)"/><path d="m60.7728 58.2845c-.2835.326-.6521.6662-.5812.8079-.8646-.9072 1.6443-2.7357 2.7924-4.1248.893-1.0772 1.0772-2.6648 1.7151-3.4018.0142.0142.0283.0142.0425.0283.567.3969.7371 1.1907-.5244 2.8916-1.0064 1.4033-2.0128 2.1829-3.4444 3.7988z" fill="url(#U)"/><path d="m64.6283 58.9081c-.3402.2268-3.0617 2.6648-3.0192 2.8066-.6378-1.134 2.6932-3.7988 4.4083-5.032 1.4883-1.0772 1.9135-2.1828 3.2459-2.5939.3402.6237-.1417 1.219-.3969 1.4742-.2976.2835-3.8979 3.1183-4.2381 3.3451z" fill="url(#V)"/><path d="m61.6517 61.7855c.0851.0709.2552.0993.5528-.0283-.2126.1417-.4252.1843-.5528.0283z" fill="url(#W)"/><path d="m62.7854 65.0456c-.0992-.0567-.1559-.1134-.1559-.1701.1701.1701.2126.4395.7938.1134.6378-.3543 2.1828-1.4316 3.1467-1.8993.4252-.2126.7938-.2977 1.1198-.2552-.5103.1843-.326.326-1.4742.8647-.6236.2835-2.7781 1.7009-3.4302 1.3465z" fill="url(#X)"/><path d="m65.0535 60.2689c-.9355.6803-2.764 2.0411-3.3593 1.545.1701.085.7087-.241 1.5308-.7654.808-.5245 3.005-2.0553 4.224-2.6932.9922-.5103 1.7577-.7229 2.2821-.4394-1.786.1134-3.7987 1.7009-4.6776 2.353z" fill="url(#Y)"/><path d="m64.5148 56.2717c-1.4033 1.0347-3.4586 3.416-4.2807 2.8632.1418.0567.4678-.085.7513-.2977.3118-.2409 3.1467-2.7923 3.7987-3.3026.8505-.652 1.9419-1.8852 2.9625-2.1403-1.0915.5953-2.0978 2.0411-3.2318 2.8774z" fill="url(#Z)"/><path d="m57.215 58.2703c.5953-.3686 1.2048-.9922 1.6442-1.5167.7229-.8788 3.2885-3.7562 3.898-4.6492.1842-.2693.3827-.4536.5953-.5811-.2835.411-.4394.9922-1.0773 1.7151-1.0205 1.1623-2.4947 3.0333-3.0475 3.6853s-1.4599 2.0553-2.0127 1.3466z" fill="url(#aa)"/><path d="m52.58 68.0081c.4961-.8788 1.1197-1.3608 1.8568-.7371 1.9986 1.7151 4.5642 1.5592 8.0511-.5811 3.1042-1.9136 4.6634-2.6932 6.1375-2.9908.1701.8079-1.4175 1.7009-1.8002 1.9419-.6095.3969-2.6789 1.4883-3.3876 1.8568-1.2049.6237-3.7988 3.4019-6.7187 3.0333-1.6442-.2126-3.1042-1.2332-4.1389-2.523z" fill="url(#ab)"/><path d="m52.4382 57.9584c.1984-1.8426-1.0206-2.8774-.9072-3.7987.0284-.2693.1984-.4536.4111-.567-.3402.6804.1701 1.3891.893 2.5798.7795 1.2898.7654 3.1183-.1134 4.8476-.8789 1.7293-.3827 4.3232.8221 5.2871 1.2048.9638 2.5088 4.6634 7.9943 1.3749.3402-.241.6804-.4536 1.0064-.6095 2.2821-1.0347 3.3877-1.5025 4.4933-2.2821.2126-.1559.8505-.7796 1.3608-.4252-.4253.5811-1.3183 1.0914-1.6017 1.2757-.6095.3969-2.679 1.4883-3.3877 1.8568-.0851.0426-.1985.1134-.2977.1843-.0283.0142-.0567.0425-.085.0567-.0142 0-.0142.0142-.0284.0142-.0142.0141-.0425.0283-.0567.0425 0 0-.0142 0-.0142.0142-.737.5102-1.7576 1.3749-2.9624 2.0127-.0992.0567-.2126.1134-.326.156-.1134.0566-.2126.0992-.326.1417-.8222.3402-1.701.5386-2.6223.4111-3.3735-.4395-6.0383-4.3516-5.7123-6.9313.3544-2.594 1.2332-3.4728 1.46-5.6415z" fill="url(#ac)"/></svg>